<?xml version="1.0" encoding="UTF-8" standalone="no"?>
<svg
   width="100%"
   height="100%"
   viewBox="0 0 100 100"
   version="1.1"
   xml:space="preserve"
   style="fill-rule:evenodd;clip-rule:evenodd;stroke-linejoin:round;stroke-miterlimit:2;"
   id="svg2"
   sodipodi:docname="Jakarta_MRT_L.svg"
   inkscape:version="1.4.2 (f4327f4, 2025-05-13)"
   xmlns:inkscape="http://www.inkscape.org/namespaces/inkscape"
   xmlns:sodipodi="http://sodipodi.sourceforge.net/DTD/sodipodi-0.dtd"
   xmlns="http://www.w3.org/2000/svg"
   xmlns:svg="http://www.w3.org/2000/svg"><defs
   id="defs2" /><sodipodi:namedview
   id="namedview2"
   pagecolor="#ffffff"
   bordercolor="#999999"
   borderopacity="1"
   inkscape:showpageshadow="0"
   inkscape:pageopacity="0"
   inkscape:pagecheckerboard="0"
   inkscape:deskcolor="#d1d1d1"
   inkscape:zoom="3.85"
   inkscape:cx="101.03896"
   inkscape:cy="37.402597"
   inkscape:window-width="1920"
   inkscape:window-height="981"
   inkscape:window-x="-10"
   inkscape:window-y="-10"
   inkscape:window-maximized="1"
   inkscape:current-layer="svg2" />
    <g
   transform="matrix(16.4069,0,0,16.4069,49.9918,100)"
   id="g1">
        <path
   d="M0,-6.095C-1.68,-6.095 -3.047,-4.728 -3.047,-3.047C-3.047,-1.366 -1.68,0 0,0C1.68,0 3.047,-1.366 3.047,-3.047C3.047,-4.728 1.68,-6.095 0,-6.095M0,-5.267C1.226,-5.267 2.219,-4.273 2.219,-3.047C2.219,-1.822 1.226,-0.827 0,-0.827C-1.226,-0.827 -2.219,-1.822 -2.219,-3.047C-2.219,-4.273 -1.226,-5.267 0,-5.267"
   style="fill:#33cb98;fill-rule:nonzero;fill-opacity:1"
   id="path1" />
    </g>
    <g
   transform="matrix(16.4069,0,0,16.4069,58.9008,50.9334)"
   id="g2">
        
    </g>
<path
   style="fill:#231f20;fill-opacity:1"
   d="M 39.349172,50.284922 V 31.342641 h 3.710344 3.710344 v 15.6225 15.6225 h 8.299453 8.299453 v 3.319782 3.319781 H 51.358969 39.349172 Z"
   id="path4" /></svg>
